<?xml version="1.0" encoding="utf-8"?>
<!-- Generator: $$$/GeneralStr/196=Adobe Illustrator 27.6.0, SVG Export Plug-In . SVG Version: 6.00 Build 0)  -->
<svg version="1.1" id="图层_1" xmlns="http://www.w3.org/2000/svg" xmlns:xlink="http://www.w3.org/1999/xlink" x="0px" y="0px"
	 viewBox="0 0 200 200" style="enable-background:new 0 0 200 200;" xml:space="preserve">
<style type="text/css">
	.st0{fill:url(#SVGID_1_);}
	.st1{fill:url(#SVGID_00000058573210881158874340000015765235660098331792_);}
	.st2{fill:url(#SVGID_00000114775738347244496340000010779743725305320637_);}
	.st3{opacity:0.9;fill:url(#SVGID_00000075141871429187500220000017014440950544202382_);enable-background:new    ;}
	.st4{fill:url(#SVGID_00000026128398605464319520000016570478395119367299_);}
	.st5{fill:url(#SVGID_00000066515098963310045150000004464233144222798253_);}
	.st6{fill:url(#SVGID_00000120521390015296965320000006116971169329164434_);}
	.st7{fill:none;stroke:#0F2137;stroke-width:4;stroke-linecap:round;}
	.st8{fill:none;stroke:#93C5FD;stroke-width:2;stroke-linecap:round;}
</style>
<linearGradient id="SVGID_1_" gradientUnits="userSpaceOnUse" x1="-405.7251" y1="608.3352" x2="-404.7251" y2="607.3352" gradientTransform="matrix(78 0 0 -88 31677 53555)">
	<stop  offset="0" style="stop-color:#003E88"/>
	<stop  offset="1" style="stop-color:#71B0FB;stop-opacity:0.9"/>
</linearGradient>
<polygon class="st0" points="108,22 30,108 76,110 "/>
<linearGradient id="SVGID_00000176740788942251220150000005340744931820967871_" gradientUnits="userSpaceOnUse" x1="-403.5666" y1="605.2714" x2="-402.6559" y2="604.291" gradientTransform="matrix(57 0 0 -52 23046 31573)">
	<stop  offset="2.191050e-02" style="stop-color:#79B5FB"/>
	<stop  offset="1" style="stop-color:#78B4FB;stop-opacity:0"/>
</linearGradient>
<polygon style="fill:url(#SVGID_00000176740788942251220150000005340744931820967871_);" points="76,110 30,108 92.6,149.9 "/>
<linearGradient id="SVGID_00000022539279171400754650000003479992024893324672_" gradientUnits="userSpaceOnUse" x1="-403.6477" y1="608.1833" x2="-404.1877" y2="606.8762" gradientTransform="matrix(62 0 0 -84 25179 51103)">
	<stop  offset="0" style="stop-color:#73DBFB"/>
	<stop  offset="3.187770e-02" style="stop-color:#71D6FB"/>
	<stop  offset="0.2203" style="stop-color:#6AC1FB"/>
	<stop  offset="0.4272" style="stop-color:#64B1FA"/>
	<stop  offset="0.6644" style="stop-color:#61A8FA"/>
	<stop  offset="1" style="stop-color:#60A5FA"/>
</linearGradient>
<polygon style="fill:url(#SVGID_00000022539279171400754650000003479992024893324672_);" points="108,22 170,100 120,106 "/>
<linearGradient id="SVGID_00000179624370022834915190000000823580455060318606_" gradientUnits="userSpaceOnUse" x1="-405.0924" y1="605.7186" x2="-405.6838" y2="604.9133" gradientTransform="matrix(77 0 0 -58 31329 35243)">
	<stop  offset="0" style="stop-color:#60A5FA"/>
	<stop  offset="0.3085" style="stop-color:#61A8FA;stop-opacity:0.6915"/>
	<stop  offset="0.557" style="stop-color:#65B2FB;stop-opacity:0.443"/>
	<stop  offset="0.784" style="stop-color:#6CC3FC;stop-opacity:0.216"/>
	<stop  offset="0.9981" style="stop-color:#75DBFE;stop-opacity:1.873791e-03"/>
	<stop  offset="1" style="stop-color:#75DBFE;stop-opacity:0"/>
</linearGradient>
<polygon style="opacity:0.9;fill:url(#SVGID_00000179624370022834915190000000823580455060318606_);enable-background:new    ;" points="
	120,106 170,100 92.6,163.7 "/>
<linearGradient id="SVGID_00000106832032319262323820000005607549786655035064_" gradientUnits="userSpaceOnUse" x1="127.0133" y1="20.7527" x2="127.0133" y2="20.7287">
	<stop  offset="5.327789e-09" style="stop-color:#6CA4FA"/>
	<stop  offset="0.5" style="stop-color:#93C5FD"/>
	<stop  offset="1" style="stop-color:#60A5FA"/>
</linearGradient>
<path style="fill:url(#SVGID_00000106832032319262323820000005607549786655035064_);" d="M107.7,18.4c15,1.7,28.3,0.4,26.6,12.6
	c-0.8,5.7,8.5,5.8,12,9.1c-0.8-0.9-14.4-2.3-13.5-8.4c1.8-12.1-12-10.1-25.1-10.9V18.4z"/>
<linearGradient id="SVGID_00000053506498291641902610000005488364397685933210_" gradientUnits="userSpaceOnUse" x1="88.3127" y1="197.2304" x2="100.2374" y2="91.901">
	<stop  offset="0" style="stop-color:#0C1133"/>
	<stop  offset="0.2204" style="stop-color:#153062"/>
	<stop  offset="0.4705" style="stop-color:#1E4E90"/>
	<stop  offset="0.6929" style="stop-color:#2565B1"/>
	<stop  offset="0.8771" style="stop-color:#2972C6"/>
	<stop  offset="1" style="stop-color:#2A77CD"/>
</linearGradient>
<path style="fill:url(#SVGID_00000053506498291641902610000005488364397685933210_);" d="M92,170.2c-0.1,0-0.2,0-0.2,0
	c-1.2-0.1-2.1-1.2-2-2.5l16-148c0.1-1.2,1.2-2.1,2.5-2c1.2,0.1,2.1,1.2,2,2.5l-16,148C94.1,169.4,93.1,170.2,92,170.2z"/>
<linearGradient id="SVGID_00000011722095546957308890000009326378378305822902_" gradientUnits="userSpaceOnUse" x1="10.9992" y1="161.7195" x2="189.0008" y2="161.7195">
	<stop  offset="0" style="stop-color:#6CA5FB"/>
	<stop  offset="0.6883" style="stop-color:#0C1133"/>
</linearGradient>
<path style="fill:url(#SVGID_00000011722095546957308890000009326378378305822902_);" d="M100,171.4c-29,0-58.1-4.5-86.9-13.6
	c-1.6-0.5-2.5-2.2-2-3.8c0.5-1.6,2.2-2.5,3.8-2c56.5,17.7,113.7,17.7,170.2,0c1.6-0.5,3.3,0.4,3.8,2s-0.4,3.3-2,3.8
	C158.1,166.9,129,171.4,100,171.4z"/>
<path class="st7" d="M22,163c52,16.7,104,16.7,156,0"/>
<path class="st8" d="M2,174c15.3-2.7,31.3-2.7,48,0s33.3,2.7,50,0s33.3-2.7,50,0s32.7,2.7,48,0"/>
</svg>
